<svg width="18" height="20" viewBox="0 0 18 20" fill="none" xmlns="http://www.w3.org/2000/svg">
<path d="M17.6488 4.84036C17.6184 4.80873 17.583 4.78038 17.5421 4.75673L9.60394 0.1615C9.23195 -0.0538334 8.77414 -0.0538334 8.40216 0.1615L0.54021 4.71258C0.528678 4.71868 0.51659 4.72328 0.505254 4.72987C0.473595 4.74825 0.443496 4.76865 0.414349 4.79011C0.411666 4.79214 0.408782 4.79397 0.406152 4.79605C0.153189 4.98637 -6.26793e-05 5.2884 1.9231e-08 5.61008L0.000146316 14.114C0.000158855 14.768 0.347086 15.3723 0.910252 15.6993L7.72829 19.6584C8.12049 19.8861 8.56025 20 9.00005 20C9.43982 20 9.87959 19.8861 10.2718 19.6584L17.0897 15.6993C17.6529 15.3723 17.9998 14.768 17.9998 14.114L18 5.61008C18 5.31231 17.8688 5.03144 17.6488 4.84036ZM16.0795 13.9177C16.0795 14.0271 16.0215 14.1281 15.9273 14.1828L9.49347 17.9188C9.18814 18.0961 8.81193 18.0961 8.5066 17.9188L2.07262 14.1827C1.97846 14.1281 1.92045 14.027 1.92045 13.9177L1.92032 7.06174C1.92032 6.89806 2.0965 6.79576 2.23745 6.8776L8.13169 10.3003C8.66887 10.6122 9.33071 10.6122 9.86789 10.3003L15.7626 6.87759C15.9035 6.79576 16.0797 6.89806 16.0797 7.06173L16.0795 13.9177Z" fill="black"/>
</svg>
